Normalized EMG Linear Envelopes
nRows=27
nColumns=17

endheader
time	        VM	        VL	        RF	       GRA	        TA	   ADDLONG	   SEMIMEM	      BFLH	        GM	        GL	       TFL	   GLUTMAX	   GLUTMED	      PIRI	    OBTINT	        QF	
2.7	  0.015887	  0.000000	  0.029154	  0.107556	  0.109872	  0.026410	  0.551307	  0.528029	  0.202700	  0.045256	  0.016482	  0.217542	  0.200622	  0.348036	  0.699443	  0.372263	
2.7005	  0.015616	  0.000000	  0.028214	  0.108898	  0.111417	  0.026517	  0.556930	  0.532795	  0.204769	  0.045846	  0.016436	  0.219346	  0.201296	  0.347862	  0.697125	  0.373827	
2.701	  0.015366	  0.000000	  0.027292	  0.110264	  0.112993	  0.026629	  0.562566	  0.537570	  0.206825	  0.046441	  0.016389	  0.221125	  0.201953	  0.347721	  0.694947	  0.375385	
2.7015	  0.015135	  0.000000	  0.026388	  0.111652	  0.114599	  0.026747	  0.568212	  0.542355	  0.208869	  0.047040	  0.016341	  0.222879	  0.202592	  0.347616	  0.692908	  0.376939	
2.702	  0.014926	  0.000000	  0.025502	  0.113065	  0.116236	  0.026870	  0.573868	  0.547152	  0.210900	  0.047643	  0.016292	  0.224607	  0.203213	  0.347544	  0.691009	  0.378488	
2.7025	  0.014737	  0.000000	  0.024634	  0.114501	  0.117903	  0.026999	  0.579534	  0.551962	  0.212916	  0.048250	  0.016241	  0.226309	  0.203816	  0.347508	  0.689251	  0.380034	
2.703	  0.014569	  0.000000	  0.023784	  0.115962	  0.119600	  0.027133	  0.585209	  0.556785	  0.214917	  0.048860	  0.016189	  0.227984	  0.204401	  0.347507	  0.687635	  0.381577	
2.7035	  0.014424	  0.000000	  0.022951	  0.117447	  0.121326	  0.027273	  0.590891	  0.561623	  0.216903	  0.049474	  0.016137	  0.229631	  0.204967	  0.347541	  0.686161	  0.383118	
2.704	  0.014299	  0.000000	  0.022137	  0.118956	  0.123081	  0.027419	  0.596581	  0.566477	  0.218872	  0.050092	  0.016083	  0.231251	  0.205515	  0.347609	  0.684829	  0.384657	
2.7045	  0.014198	  0.000000	  0.021339	  0.120489	  0.124866	  0.027570	  0.602277	  0.571348	  0.220824	  0.050713	  0.016028	  0.232843	  0.206043	  0.347714	  0.683642	  0.386196	
2.705	  0.014118	  0.000000	  0.020560	  0.122047	  0.126680	  0.027727	  0.607979	  0.576237	  0.222760	  0.051337	  0.015972	  0.234405	  0.206553	  0.347854	  0.682598	  0.387734	
2.7055	  0.014061	  0.000000	  0.019797	  0.123630	  0.128523	  0.027890	  0.613685	  0.581145	  0.224677	  0.051965	  0.015915	  0.235938	  0.207043	  0.348029	  0.681698	  0.389272	
2.706	  0.014027	  0.000000	  0.019052	  0.125238	  0.130394	  0.028058	  0.619396	  0.586074	  0.226577	  0.052595	  0.015856	  0.237441	  0.207513	  0.348240	  0.680942	  0.390812	
2.7065	  0.014016	  0.000000	  0.018324	  0.126870	  0.132294	  0.028232	  0.625108	  0.591024	  0.228458	  0.053228	  0.015797	  0.238913	  0.207963	  0.348487	  0.680330	  0.392352	
2.707	  0.014029	  0.000000	  0.017613	  0.128528	  0.134223	  0.028413	  0.630822	  0.595998	  0.230320	  0.053864	  0.015737	  0.240354	  0.208393	  0.348769	  0.679862	  0.393895	
2.7075	  0.014065	  0.000000	  0.016919	  0.130211	  0.136180	  0.028599	  0.636537	  0.600998	  0.232164	  0.054502	  0.015676	  0.241762	  0.208803	  0.349087	  0.679537	  0.395439	
2.708	  0.014125	  0.000000	  0.016242	  0.131918	  0.138166	  0.028791	  0.642251	  0.606024	  0.233990	  0.055143	  0.015614	  0.243136	  0.209192	  0.349440	  0.679354	  0.396986	
2.7085	  0.014210	  0.000000	  0.015581	  0.133651	  0.140180	  0.028989	  0.647963	  0.611080	  0.235797	  0.055785	  0.015551	  0.244477	  0.209560	  0.349828	  0.679313	  0.398535	
2.709	  0.014319	  0.000000	  0.014937	  0.135409	  0.142223	  0.029193	  0.653672	  0.616167	  0.237586	  0.056430	  0.015486	  0.245784	  0.209907	  0.350251	  0.679414	  0.400087	
2.7095	  0.014452	  0.000000	  0.014310	  0.137193	  0.144295	  0.029404	  0.659375	  0.621287	  0.239357	  0.057076	  0.015421	  0.247055	  0.210233	  0.350708	  0.679654	  0.401643	
2.71	  0.014611	  0.000000	  0.013698	  0.139001	  0.146396	  0.029621	  0.665072	  0.626442	  0.241111	  0.057723	  0.015355	  0.248291	  0.210538	  0.351199	  0.680032	  0.403201	
2.7105	  0.014795	  0.000000	  0.013103	  0.140834	  0.148526	  0.029844	  0.670759	  0.631634	  0.242847	  0.058372	  0.015288	  0.249491	  0.210822	  0.351723	  0.680548	  0.404764	
2.711	  0.015004	  0.000000	  0.012525	  0.142692	  0.150685	  0.030073	  0.676436	  0.636863	  0.244565	  0.059022	  0.015219	  0.250655	  0.211085	  0.352280	  0.681200	  0.406329	
2.7115	  0.015239	  0.000000	  0.011962	  0.144575	  0.152873	  0.030309	  0.682101	  0.642133	  0.246267	  0.059672	  0.015150	  0.251782	  0.211326	  0.352869	  0.681986	  0.407898	
2.712	  0.015500	  0.000000	  0.011415	  0.146484	  0.155090	  0.030552	  0.687752	  0.647445	  0.247952	  0.060324	  0.015080	  0.252873	  0.211546	  0.353490	  0.682905	  0.409471	
2.7125	  0.015787	  0.000000	  0.010883	  0.148418	  0.157337	  0.030802	  0.693388	  0.652800	  0.249620	  0.060975	  0.015009	  0.253928	  0.211745	  0.354141	  0.683955	  0.411047	
2.713	  0.016101	  0.000000	  0.010367	  0.150378	  0.159612	  0.031058	  0.699009	  0.658200	  0.251273	  0.061627	  0.014937	  0.254946	  0.211922	  0.354821	  0.685134	  0.412625	
